<svg xmlns="http://www.w3.org/2000/svg" width="540" height="285" viewBox="0 0 540 285" role="img" aria-label="Claude Code usage (last 14 days)">
  <style>
    .bg { fill: #1a1b27; }
    .title { fill: #bb9af7; font: 600 18px "Segoe UI", Roboto, Helvetica, Arial, sans-serif; }
    .label { fill: #a9b1d6; font: 400 12px "Segoe UI", Roboto, Helvetica, Arial, sans-serif; }
    .value { fill: #c0caf5; font: 600 14px "Segoe UI", Roboto, Helvetica, Arial, sans-serif; }
    .axis  { fill: #565f89; font: 400 10px "Segoe UI", Roboto, Helvetica, Arial, sans-serif; }
  </style>
  <rect class="bg" width="100%" height="100%" rx="10" ry="10" />
  <text class="title" x="25" y="38">Claude Code usage</text>
  <text class="label" x="25" y="60">last 14 days</text>

  <text class="label" x="25"        y="95">Tokens</text>
  <text class="value" x="25"        y="118">3.5M</text>

  <text class="label" x="195"  y="95">Cost (USD)</text>
  <text class="value" x="195"  y="118">$12.80</text>

  <text class="label" x="365"  y="95">Top model</text>
  <text class="value" x="365"  y="118">claude-opus-4-6</text>

  <g><rect x="25.00" y="226.92" width="31.29" height="23.08" rx="2" fill="#7aa2f7"><title>2026-04-04: 120,000 tokens</title></rect><rect x="60.29" y="184.62" width="31.29" height="65.38" rx="2" fill="#7aa2f7"><title>2026-04-05: 340,000 tokens</title></rect><rect x="95.57" y="234.23" width="31.29" height="15.77" rx="2" fill="#7aa2f7"><title>2026-04-06: 82,000 tokens</title></rect><rect x="130.86" y="171.15" width="31.29" height="78.85" rx="2" fill="#7aa2f7"><title>2026-04-07: 410,000 tokens</title></rect><rect x="166.14" y="209.62" width="31.29" height="40.38" rx="2" fill="#7aa2f7"><title>2026-04-08: 210,000 tokens</title></rect><rect x="201.43" y="239.42" width="31.29" height="10.58" rx="2" fill="#7aa2f7"><title>2026-04-09: 55,000 tokens</title></rect><rect x="236.71" y="197.12" width="31.29" height="52.88" rx="2" fill="#7aa2f7"><title>2026-04-10: 275,000 tokens</title></rect><rect x="272.00" y="213.46" width="31.29" height="36.54" rx="2" fill="#7aa2f7"><title>2026-04-11: 190,000 tokens</title></rect><rect x="307.29" y="150.00" width="31.29" height="100.00" rx="2" fill="#7aa2f7"><title>2026-04-12: 520,000 tokens</title></rect><rect x="342.57" y="189.42" width="31.29" height="60.58" rx="2" fill="#7aa2f7"><title>2026-04-13: 315,000 tokens</title></rect><rect x="377.86" y="233.08" width="31.29" height="16.92" rx="2" fill="#7aa2f7"><title>2026-04-14: 88,000 tokens</title></rect><rect x="413.14" y="165.38" width="31.29" height="84.62" rx="2" fill="#7aa2f7"><title>2026-04-15: 440,000 tokens</title></rect><rect x="448.43" y="200.00" width="31.29" height="50.00" rx="2" fill="#7aa2f7"><title>2026-04-16: 260,000 tokens</title></rect><rect x="483.71" y="215.38" width="31.29" height="34.62" rx="2" fill="#7aa2f7"><title>2026-04-17: 180,000 tokens</title></rect></g>
  <text class="axis" x="25" y="268" text-anchor="start">2026-04-04</text>
  <text class="axis" x="515" y="268" text-anchor="end">2026-04-17</text>
</svg>
